<?xml version="1.0" standalone="yes"?>

<svg version="1.1" viewBox="0.0 0.0 960.0 540.0" fill="none" stroke="none" stroke-linecap="square" stroke-miterlimit="10" xmlns="http://www.w3.org/2000/svg" xmlns:xlink="http://www.w3.org/1999/xlink"><clipPath id="g17dcb2fa9c_0_4.0"><path d="m0 0l960.0 0l0 540.0l-960.0 0l0 -540.0z" clip-rule="nonzero"></path></clipPath><g clip-path="url(#g17dcb2fa9c_0_4.0)"><path fill="#b4a7d6" d="m0 0l960.0 0l0 540.0l-960.0 0z" fill-rule="nonzero"></path><path fill="#000000" fill-opacity="0.0" d="m165.4042 151.2126l750.2992 0l0 314.96063l-750.2992 0z" fill-rule="nonzero"></path><path fill="#ffffff" d="m274.68546 289.4929l6.40625 -30.078125l-8.375 0l-6.40625 30.078125l-14.90625 0l11.359375 -53.32811q-1.921875 0.8125 -4.59375 4.828125q-2.671875 4.015625 -2.671875 9.96875q0 1.375 0.140625 2.1875q0.15625 0.796875 0.3125 1.234375q0.171875 0.4375 0.421875 0.890625q0.25 0.453125 0.25 2.7656097q-3.921875 0 -5.8125 -0.46875q-1.875 -0.484375 -3.296875 -1.6406097q-1.40625 -1.15625 -2.078125 -2.984375q-0.671875 -1.84375 -0.671875 -4.328125q0 -3.015625 1.265625 -5.859375q1.28125 -2.84375 3.40625 -5.3125q2.140625 -2.484375 5.0 -4.53125q2.875 -2.0625 6.140625 -3.5625q3.265625 -1.5 6.796875 -2.328125q3.546875 -0.84375 7.09375 -0.84375q0.9375 0 1.734375 0.046875q0.8125 0.03125 3.484375 0.296875l-5.09375 23.640625l8.375 0l5.109375 -23.828125l14.921875 0l-13.40625 63.156235l-14.90625 0zm70.03125 -17.65625q-1.9375 5.578125 -3.34375 8.109375q-1.40625 2.515625 -2.96875 4.3125q-1.546875 1.78125 -3.203125 2.90625q-1.640625 1.125 -3.234375 1.75q-1.578125 0.609375 -3.015625 0.828125q-1.4375 0.21875 -2.609375 0.21875q-4.09375 0 -6.59375 -2.328125q-2.484375 -2.328125 -2.015625 -3.921875q0.453125 0.515625 -1.265625 2.15625q-1.71875 1.640625 -3.46875 2.578125q-1.734375 0.921875 -3.390625 1.21875q-1.640625 0.296875 -3.03125 0.296875q-2.078125 0 -3.953125 -0.65625q-1.875 -0.65625 -3.296875 -2.09375q-1.421875 -1.4375 -2.203125 -3.53125q-0.765625 -2.109375 -0.765625 -4.953125q0 -1.1875 0.171875 -2.578125q0.15625 -1.390625 0.484375 -3.0l5.71875 -26.968735l14.90625 0l-6.15625 29.17186q-0.203125 1.078125 -0.203125 1.9375q0 0.953125 0.171875 1.296875q0.1875 0.328125 0.546875 0.328125q0.75 0 1.40625 -0.359375q0.65625 -0.359375 1.28125 -1.09375q0.640625 -0.734375 1.171875 -1.875q0.53125 -1.15625 0.9375 -2.515625l5.703125 -26.89061l14.90625 0l-6.171875 29.26561q-0.1875 0.578125 -0.25 1.109375q-0.0625 0.515625 -0.0625 1.046875q0 0.875 0.265625 1.09375q0.265625 0.21875 1.359375 0.21875q0.765625 0 1.4375 -0.359375q0.6875 -0.359375 1.328125 -1.09375q0.65625 -0.75 1.1875 -1.875q0.546875 -1.140625 1.265625 -3.75l6.953125 0zm60.140625 0q-2.484375 7.3125 -4.5625 10.453125q-2.0625 3.125 -4.28125 4.859375q-2.203125 1.734375 -4.375 2.28125q-2.171875 0.53125 -3.96875 0.53125q-3.0 0 -5.125 -0.90625q-2.125 -0.90625 -3.46875 -2.453125q-1.328125 -1.546875 -1.90625 -3.453125q-0.578125 -1.90625 -0.578125 -3.875q0 -2.203125 0.59375 -5.0q0.59375 -2.8125 1.25 -5.65625q0.671875 -2.859375 1.203125 -5.421875q0.546875 -2.5625 0.546875 -4.3125q0 -2.4375 -1.234375 -2.4375q-0.625 0 -1.234375 0.390625q-0.609375 0.375 -1.25 1.1875q-0.625 0.796875 -1.1875 2.015625q-0.5625 1.203125 -0.96875 2.546875l-5.6875 26.90625l-14.921875 0l6.296875 -29.65625q0.1875 -0.765625 0.1875 -1.609375q0 -0.546875 -0.078125 -0.953125q-0.078125 -0.40625 -0.1875 -0.59375q-0.109375 -0.203125 -0.203125 -0.25q-0.078125 -0.0625 -0.296875 -0.0625q-0.71875 0 -1.390625 0.390625q-0.65625 0.390625 -1.3125 1.21875q-0.640625 0.8125 -1.203125 2.046875q-0.5625 1.21875 -0.96875 2.5625l-5.6875 26.90625l-14.921875 0l9.1875 -43.312485l14.890625 0l-1.984375 3.984375q-0.703125 -0.890625 0.734375 -1.875q1.453125 -0.984375 2.875 -1.546875q1.4375 -0.5625 2.75 -0.75q1.328125 -0.203125 2.5 -0.203125q1.78125 0 3.40625 0.4375q1.640625 0.4375 2.953125 1.46875q1.328125 1.015625 2.21875 2.609375q0.890625 1.578125 0.046875 2.015625q-0.234375 -1.328125 1.453125 -2.8125q1.703125 -1.5 3.34375 -2.296875q1.65625 -0.8125 3.171875 -1.078125q1.515625 -0.265625 2.75 -0.265625q2.15625 0 4.078125 0.609375q1.921875 0.59375 3.390625 1.953125q1.46875 1.34375 2.25 3.390625q0.796875 2.03125 0.796875 4.7187347q0 1.734375 -0.3125 3.671875q-0.296875 1.9375 -0.71875 3.921875q-0.421875 1.984375 -0.9375 3.90625q-0.5 1.921875 -0.90625 3.65625q-0.390625 1.71875 -0.671875 3.125q-0.28125 1.40625 -0.28125 2.390625q0 0.9375 0.28125 1.328125q0.28125 0.375 1.265625 0.375q0.890625 0 1.53125 -0.328125q0.65625 -0.34375 1.265625 -1.078125q0.609375 -0.734375 1.1875 -1.921875q0.59375 -1.203125 1.609375 -3.75l6.796875 0zm60.15625 0q-2.484375 7.3125 -4.5625 10.453125q-2.0625 3.125 -4.28125 4.859375q-2.203125 1.734375 -4.375 2.28125q-2.171875 0.53125 -3.96875 0.53125q-3.0 0 -5.125 -0.90625q-2.125 -0.90625 -3.46875 -2.453125q-1.328125 -1.546875 -1.90625 -3.453125q-0.578125 -1.90625 -0.578125 -3.875q0 -2.203125 0.59375 -5.0q0.59375 -2.8125 1.25 -5.65625q0.671875 -2.859375 1.203125 -5.421875q0.546875 -2.5625 0.546875 -4.3125q0 -2.4375 -1.234375 -2.4375q-0.625 0 -1.234375 0.390625q-0.609375 0.375 -1.25 1.1875q-0.625 0.796875 -1.1875 2.015625q-0.5625 1.203125 -0.96875 2.546875l-5.6875 26.90625l-14.921875 0l6.296875 -29.65625q0.1875 -0.765625 0.1875 -1.609375q0 -0.546875 -0.078125 -0.953125q-0.078125 -0.40625 -0.1875 -0.59375q-0.109375 -0.203125 -0.203125 -0.25q-0.078125 -0.0625 -0.296875 -0.0625q-0.71875 0 -1.390625 0.390625q-0.65625 0.390625 -1.3125 1.21875q-0.640625 0.8125 -1.203125 2.046875q-0.5625 1.21875 -0.96875 2.5625l-5.6875 26.90625l-14.921875 0l9.1875 -43.312485l14.890625 0l-1.984375 3.984375q-0.703125 -0.890625 0.734375 -1.875q1.453125 -0.984375 2.875 -1.546875q1.4375 -0.5625 2.75 -0.75q1.328125 -0.203125 2.5 -0.203125q1.78125 0 3.40625 0.4375q1.640625 0.4375 2.953125 1.46875q1.328125 1.015625 2.21875 2.609375q0.890625 1.578125 0.046875 2.015625q-0.234375 -1.328125 1.453125 -2.8125q1.703125 -1.5 3.34375 -2.296875q1.65625 -0.8125 3.171875 -1.078125q1.515625 -0.265625 2.75 -0.265625q2.15625 0 4.078125 0.609375q1.921875 0.59375 3.390625 1.953125q1.46875 1.34375 2.25 3.390625q0.796875 2.03125 0.796875 4.7187347q0 1.734375 -0.3125 3.671875q-0.296875 1.9375 -0.71875 3.921875q-0.421875 1.984375 -0.9375 3.90625q-0.5 1.921875 -0.90625 3.65625q-0.390625 1.71875 -0.671875 3.125q-0.28125 1.40625 -0.28125 2.390625q0 0.9375 0.28125 1.328125q0.28125 0.375 1.265625 0.375q0.890625 0 1.53125 -0.328125q0.65625 -0.34375 1.265625 -1.078125q0.609375 -0.734375 1.1875 -1.921875q0.59375 -1.203125 1.609375 -3.75l6.796875 0zm15.75 -34.624985q0 1.671875 -0.640625 3.140625q-0.640625 1.453125 -1.75 2.515625q-1.109375 1.0625 -2.5625 1.671875q-1.453125 0.609375 -3.109375 0.609375q-1.65625 0 -3.109375 -0.609375q-1.453125 -0.609375 -2.546875 -1.671875q-1.078125 -1.078125 -1.703125 -2.53125q-0.625 -1.453125 -0.625 -3.125q0 -1.671875 0.609375 -3.125q0.625 -1.453125 1.703125 -2.546875q1.09375 -1.109375 2.546875 -1.75q1.453125 -0.640625 3.125 -0.640625q1.671875 0 3.125 0.640625q1.46875 0.640625 2.5625 1.734375q1.09375 1.09375 1.734375 2.5625q0.640625 1.453125 0.640625 3.125zm5.65625 34.624985q-1.96875 5.609375 -3.4375 8.140625q-1.46875 2.515625 -3.109375 4.3125q-1.640625 1.78125 -3.390625 2.90625q-1.734375 1.109375 -3.390625 1.71875q-1.65625 0.609375 -3.15625 0.828125q-1.484375 0.21875 -2.65625 0.21875q-2.078125 0 -3.953125 -0.65625q-1.875 -0.65625 -3.296875 -2.09375q-1.421875 -1.4375 -2.203125 -3.53125q-0.765625 -2.109375 -0.765625 -4.953125q0 -1.1875 0.171875 -2.578125q0.15625 -1.390625 0.484375 -3.0l5.71875 -26.968735l14.90625 0l-6.171875 29.26561q-0.171875 0.546875 -0.21875 1.078125q-0.046875 0.515625 -0.046875 1.078125q0 0.890625 0.25 1.109375q0.25 0.203125 1.328125 0.203125q0.796875 0 1.609375 -0.390625q0.828125 -0.390625 1.578125 -1.140625q0.765625 -0.765625 1.40625 -1.890625q0.640625 -1.125 1.421875 -3.65625l6.921875 0zm40.351532 0q-2.484375 7.3125 -4.5625 10.453125q-2.0625 3.125 -4.28125 4.859375q-2.203125 1.734375 -4.375 2.28125q-2.1718445 0.53125 -3.9687195 0.53125q-3.0 0 -5.125 -0.90625q-2.125 -0.90625 -3.46875 -2.453125q-1.328125 -1.546875 -1.90625 -3.453125q-0.578125 -1.90625 -0.578125 -3.875q0 -2.203125 0.59375 -5.0q0.59375 -2.8125 1.25 -5.65625q0.671875 -2.859375 1.203125 -5.421875q0.546875 -2.5625 0.546875 -4.3125q0 -2.4375 -1.234375 -2.4375q-0.625 0 -1.234375 0.390625q-0.609375 0.375 -1.25 1.1875q-0.625 0.796875 -1.1875 2.015625q-0.5625 1.203125 -0.96875 2.546875l-5.6875 26.90625l-14.921875 0l9.1875 -43.312485l14.890625 0l-1.984375 3.984375q-0.71875 -0.890625 0.703125 -1.875q1.4375 -0.984375 2.828125 -1.515625q1.390625 -0.546875 2.609375 -0.71875q1.234375 -0.1875 2.296875 -0.1875q2.15625 0 4.09375 0.609375q1.9374695 0.59375 3.4062195 1.953125q1.484375 1.34375 2.265625 3.390625q0.796875 2.03125 0.796875 4.7187347q0 1.734375 -0.3125 3.6875q-0.3125 1.9375 -0.75 3.90625q-0.4375 1.96875 -0.921875 3.90625q-0.484375 1.921875 -0.90625 3.65625q-0.421875 1.734375 -0.703125 3.140625q-0.28125 1.390625 -0.28125 2.375q0 0.9375 0.28125 1.328125q0.28125 0.375 1.265625 0.375q0.890625 0 1.53125 -0.328125q0.65625 -0.34375 1.265625 -1.078125q0.609375 -0.734375 1.1875 -1.921875q0.59375 -1.203125 1.609375 -3.75l6.796875 0zm24.515625 22.734375q-0.921875 4.578125 -2.703125 7.5q-1.78125 2.921875 -4.046875 4.59375q-2.25 1.6875 -4.6875 2.25q-2.421875 0.578125 -4.609375 0.578125q-2.0625 0 -3.96875 -0.5625q-1.890625 -0.5625 -3.375 -1.75q-1.484375 -1.171875 -2.375 -2.96875q-0.875 -1.796875 -0.875 -4.140625q0 -2.96875 1.390625 -5.21875q1.390625 -2.234375 3.46875 -3.828125q2.078125 -1.578125 4.53125 -2.640625q2.46875 -1.078125 3.90625 -1.53125l1.125 -0.578125q0.515625 0.859375 -2.15625 2.28125q-2.671875 1.40625 -6.203125 1.40625q-2.34375 0 -4.578125 -0.765625q-2.21875 -0.78125 -3.96875 -2.5625q-1.75 -1.796875 -2.765625 -4.5625q-1.015625 -2.765625 -1.015625 -6.625q0 -2.875 0.578125 -6.140625q0.578125 -3.28125 1.765625 -6.53125q1.1875 -3.265625 2.96875 -6.296875q1.796875 -3.0312347 4.265625 -5.4218597q2.484375 -2.390625 5.65625 -3.828125q3.1875 -1.4375 7.015625 -1.4375q3.96875 0 6.046875 1.59375q2.09375 1.578125 2.09375 4.125l-1.65625 0.46875l-0.484375 -5.796875l14.921875 0l-8.484375 37.093735q-0.359375 -0.46875 0.9375 -1.234375q1.3125 -0.78125 2.390625 -1.953125q1.078125 -1.1875 1.984375 -2.890625q0.921875 -1.71875 2.046875 -5.359375l6.8125 0q-1.921875 6.328125 -3.703125 9.1875q-1.78125 2.84375 -3.84375 4.71875q-2.046875 1.859375 -4.234375 2.84375q-2.171875 0.984375 -3.1875 1.234375l-0.984375 4.75zm-6.5625 -39.374985q0 0.078125 -0.078125 -0.15625q-0.0625 -0.25 -0.234375 -0.453125q-0.171875 -0.21875 -0.46875 -0.375q-0.296875 -0.15625 -0.84375 -0.15625q-1.140625 0 -2.3125 0.859375q-1.171875 0.84375 -2.296875 2.4843597q-1.125 1.625 -2.046875 3.8125q-0.921875 2.171875 -1.578125 4.515625q-0.65625 2.328125 -1.0 4.59375q-0.328125 2.25 -0.328125 4.0q0 2.015625 0.3125 2.953125q0.328125 0.9375 0.609375 1.234375q0.296875 0.28125 0.671875 0.34375q0.375 0.0625 0.78125 0.0625q0.46875 0 1.125 -0.296875q0.671875 -0.296875 1.40625 -0.90625q0.734375 -0.625 1.34375 -1.578125q0.609375 -0.96875 0.921875 -2.1875l4.015625 -18.749985zm-7.453125 38.437485q0.34375 0.65625 -0.953125 1.28125q-1.296875 0.640625 -2.1875 1.3125q-0.890625 0.6875 -1.328125 1.359375q-0.4375 0.671875 -0.4375 1.390625q0 0.15625 0.0625 0.34375q0.0625 0.1875 0.171875 0.3125q0.109375 0.125 0.28125 0.203125q0.1875 0.09375 0.53125 0.09375q0.421875 0 1.359375 -1.265625q0.953125 -1.25 1.65625 -4.53125l0.84375 -0.5zm34.90625 -4.140625l12.4375 -53.85936l0 0.890625q-2.9375 0 -5.40625 0.640625q-2.453125 0.640625 -4.1875 2.1875q-1.734375 1.546875 -2.765625 4.34375q-1.015625 2.796875 -1.015625 7.34375q0 1.375 0.140625 2.203125q0.15625 0.8125 0.296875 1.25q0.15625 0.421875 0.40625 0.859375q0.25 0.4375 0.25 2.7656097q-3.9375 0 -5.828125 -0.46875q-1.890625 -0.484375 -3.265625 -1.640625q-1.375 -1.1562347 -2.078125 -2.9843597q-0.703125 -1.828125 -0.703125 -4.296875q0 -4.296875 1.609375 -8.390625q1.625 -4.109375 5.15625 -7.234375q3.546875 -3.140625 9.03125 -4.984375q5.484375 -1.859375 13.171875 -1.859375q2.484375 0 4.421875 0.140625q1.9375 0.125 3.609375 0.328125q1.671875 0.203125 3.109375 0.46875q1.453125 0.25 2.875 0.453125q1.421875 0.1875 2.984375 0.3125q1.578125 0.125 3.46875 0.125q2.640625 0 4.90625 -0.46875q2.265625 -0.484375 6.140625 -2.03125q-0.328125 8.46875 -3.328125 11.390625q-2.984375 2.90625 -8.421875 2.90625q-3.109375 0 -6.265625 -0.5625q-3.15625 -0.5625 -4.875 -0.90625l-11.0 51.07811l-14.875 0zm22.851562 0l9.1875 -43.312485l14.890625 0l-2.296875 5.3125q-0.765625 -0.90625 0.390625 -1.859375q1.171875 -0.953125 2.484375 -1.703125q1.3125 -0.75 2.8125 -1.25q1.5 -0.5 3.21875 -0.5q1.75 0 3.109375 0.671875q1.359375 0.65625 2.28125 1.734375q0.921875 1.078125 1.359375 2.453125q0.453125 1.375 0.453125 2.8125q0 1.3125 -0.453125 2.6406097q-0.4375 1.328125 -1.390625 2.40625q-0.953125 1.0625 -2.375 1.75q-1.40625 0.671875 -3.21875 0.671875q-1.625 0 -2.625 -0.640625q-0.984375 -0.640625 -1.453125 -1.515625q-0.46875 -0.890625 -0.625 -1.65625q-0.15625 -0.78125 -0.28125 -1.21875q-0.109375 -0.43748474 0.109375 -0.62498474q0.21875 -0.1875 0.21875 0.39060974q-1.328125 0 -2.3125 0.65625q-0.984375 0.65625 -1.984375 1.59375l-6.578125 31.1875l-14.921875 0zm71.515625 -17.65625q-3.21875 5.421875 -5.5 8.203125q-2.265625 2.78125 -5.15625 4.984375q-2.875 2.1875 -6.4375 3.5625q-3.546875 1.375 -7.796875 1.375q-3.109375 0 -5.71875 -0.8125q-2.609375 -0.828125 -4.53125 -2.609375q-1.921875 -1.796875 -2.921875 -4.515625q-1.0 -2.71875 -1.0 -6.421875q0 -2.421875 0.5 -5.5625q0.484375 -3.140625 1.546875 -6.4375q1.0625 -3.296875 2.828125 -6.515625q1.78125 -3.2187347 4.34375 -5.8124847q2.578125 -2.59375 6.078125 -4.1875q3.515625 -1.609375 7.96875 -1.609375q3.0 0 5.015625 0.765625q2.015625 0.75 3.296875 2.109375q1.28125 1.34375 1.71875 3.046875q0.453125 1.6875 0.453125 3.390625q0 3.8593597 -1.6875 7.1718597q-1.6875 3.3125 -4.46875 5.734375q-2.78125 2.421875 -6.359375 3.90625q-3.5625 1.46875 -6.578125 1.046875q0.625 0.046875 0.5625 0.8125q-0.0625 0.765625 -0.0625 1.40625q0 1.796875 0.28125 2.796875q0.296875 0.984375 0.703125 1.421875q0.421875 0.421875 1.171875 0.640625q0.75 0.203125 1.96875 0.203125q2.125 0 3.828125 -0.546875q1.703125 -0.5625 3.21875 -1.546875q1.515625 -0.984375 2.9375 -2.390625q1.4375 -1.40625 3.421875 -3.609375l6.375 0zm-22.703125 -5.796875q-0.234375 0.015625 1.578125 -0.953125q1.828125 -0.984375 3.234375 -2.59375q1.421875 -1.609375 2.25 -3.640625q0.84375 -2.046875 0.84375 -4.2187347q0 -1.109375 -0.125 -1.359375q-0.125 -0.265625 -0.203125 -0.265625q-0.84375 0 -1.984375 1.140625q-1.125 1.125 -2.328125 3.3124847q-1.203125 2.171875 -2.15625 5.0q-0.953125 2.828125 -1.109375 3.578125zm53.40625 5.796875q-3.21875 5.421875 -5.5 8.203125q-2.265625 2.78125 -5.15625 4.984375q-2.875 2.1875 -6.4375 3.5625q-3.546875 1.375 -7.796875 1.375q-3.109375 0 -5.71875 -0.8125q-2.609375 -0.828125 -4.53125 -2.609375q-1.921875 -1.796875 -2.921875 -4.515625q-1.0 -2.71875 -1.0 -6.421875q0 -2.421875 0.5 -5.5625q0.484375 -3.140625 1.546875 -6.4375q1.0625 -3.296875 2.828125 -6.515625q1.78125 -3.2187347 4.34375 -5.8124847q2.578125 -2.59375 6.078125 -4.1875q3.515625 -1.609375 7.96875 -1.609375q3.0 0 5.015625 0.765625q2.015625 0.75 3.296875 2.109375q1.28125 1.34375 1.71875 3.046875q0.453125 1.6875 0.453125 3.390625q0 3.8593597 -1.6875 7.1718597q-1.6875 3.3125 -4.46875 5.734375q-2.78125 2.421875 -6.359375 3.90625q-3.5625 1.46875 -6.578125 1.046875q0.625 0.046875 0.5625 0.8125q-0.0625 0.765625 -0.0625 1.40625q0 1.796875 0.28125 2.796875q0.296875 0.984375 0.703125 1.421875q0.421875 0.421875 1.171875 0.640625q0.75 0.203125 1.96875 0.203125q2.125 0 3.828125 -0.546875q1.703125 -0.5625 3.21875 -1.546875q1.515625 -0.984375 2.9375 -2.390625q1.4375 -1.40625 3.421875 -3.609375l6.375 0zm-22.703125 -5.796875q-0.234375 0.015625 1.578125 -0.953125q1.828125 -0.984375 3.234375 -2.59375q1.421875 -1.609375 2.25 -3.640625q0.84375 -2.046875 0.84375 -4.2187347q0 -1.109375 -0.125 -1.359375q-0.125 -0.265625 -0.203125 -0.265625q-0.84375 0 -1.984375 1.140625q-1.125 1.125 -2.328125 3.3124847q-1.203125 2.171875 -2.15625 5.0q-0.953125 2.828125 -1.109375 3.578125z" fill-rule="nonzero"></path></g></svg>

